<svg xmlns="http://www.w3.org/2000/svg" viewBox="0 0 512 512">
  <rect width="512" height="512" rx="112" fill="#1a1426"/>
  <rect x="72" y="72" width="368" height="368" rx="76" fill="#3d3478"/>
  <rect x="86" y="86" width="340" height="340" rx="64" fill="#f4effb"/>
  <rect x="203" y="203" width="106" height="106" rx="30" fill="#f2c230"/>
  <path d="M199.3 116V396M116 199.3H396 M312.7 116V396M116 312.7H396" stroke="#3d3478" stroke-opacity=".55" stroke-width="9" stroke-linecap="round" fill="none"/>
  <path transform="translate(113.3 178.3) scale(1.05)" fill="#2a2350" stroke="#2a2350" stroke-width="5" stroke-linejoin="round" d="M52.83-22.90Q52.83-17.72 51.20-13.35Q49.56-8.98 46.34-5.79Q43.12-2.59 38.35-0.81Q33.59 0.98 27.34 0.98Q21.58 0.98 17.29-0.42Q12.99-1.81 10.03-4.27Q7.08-6.74 5.40-10.06Q3.71-13.38 3.08-17.19L16.80-18.31Q17.19-16.70 17.90-15.19Q18.60-13.67 19.87-12.50Q21.14-11.33 23-10.62Q24.85-9.91 27.49-9.91Q32.62-9.91 35.67-13.18Q38.72-16.46 38.72-22.61Q38.72-25.34 37.96-27.54Q37.21-29.74 35.82-31.30Q34.42-32.86 32.40-33.69Q30.37-34.52 27.78-34.52Q24.37-34.52 22.17-33.23Q19.97-31.93 18.46-30.08L5.08-30.08L7.47-68.80L48.83-68.80L48.83-58.59L19.92-58.59L18.80-41.21Q20.85-43.02 23.97-44.31Q27.10-45.61 31.25-45.61Q36.33-45.61 40.33-43.95Q44.34-42.29 47.12-39.31Q49.90-36.33 51.37-32.15Q52.83-27.98 52.83-22.90"/>
  <path transform="translate(227.5 178.8) scale(1.05)" fill="#2a2350" stroke="#2a2350" stroke-width="5" stroke-linejoin="round" d="M52-19.09Q52-14.40 50.46-10.67Q48.93-6.93 45.85-4.30Q42.77-1.66 38.21-0.27Q33.64 1.12 27.59 1.12Q20.85 1.12 16.24-0.59Q11.62-2.29 8.67-5.10Q5.71-7.91 4.22-11.47Q2.73-15.04 2.29-18.70L16.26-19.92Q16.55-17.72 17.36-15.89Q18.16-14.06 19.53-12.74Q20.90-11.43 22.88-10.72Q24.85-10.01 27.54-10.01Q32.47-10.01 35.21-12.45Q37.94-14.89 37.94-19.92Q37.94-23 36.65-24.85Q35.35-26.71 33.37-27.71Q31.40-28.71 29.10-29.05Q26.81-29.39 24.76-29.39L19.97-29.39L19.97-40.48L24.46-40.48Q26.51-40.48 28.64-40.87Q30.76-41.26 32.47-42.29Q34.18-43.31 35.25-45.14Q36.33-46.97 36.33-49.80Q36.33-54.05 33.96-56.47Q31.59-58.89 27.05-58.89Q22.80-58.89 20.19-56.54Q17.58-54.20 17.19-49.90L3.47-50.88Q4.05-55.71 6.13-59.28Q8.20-62.84 11.35-65.19Q14.50-67.53 18.60-68.68Q22.71-69.82 27.29-69.82Q33.35-69.82 37.70-68.36Q42.04-66.89 44.82-64.40Q47.61-61.91 48.93-58.59Q50.24-55.27 50.24-51.51Q50.24-48.49 49.37-45.87Q48.49-43.26 46.70-41.19Q44.92-39.11 42.14-37.62Q39.36-36.13 35.55-35.40L35.55-35.21Q39.79-34.72 42.92-33.28Q46.04-31.84 48.05-29.69Q50.05-27.54 51.03-24.83Q52-22.12 52-19.09"/>
  <path transform="translate(222.8 297.3) scale(1.2)" fill="#1a1426" stroke="#1a1426" stroke-width="5" stroke-linejoin="round" d="M51.90-35.50Q51.90-17.19 45.21-8.11Q38.53 0.98 26.22 0.98Q21.78 0.98 18.24 0.05Q14.70-0.88 12.06-2.83Q9.42-4.79 7.59-7.86Q5.76-10.94 4.69-15.19L17.58-16.99Q18.55-13.33 20.78-11.57Q23-9.81 26.37-9.81Q29.15-9.81 31.35-11.13Q33.54-12.45 35.11-15.14Q36.67-17.82 37.52-21.95Q38.38-26.07 38.43-31.69Q37.45-29.79 35.84-28.32Q34.23-26.86 32.20-25.88Q30.18-24.90 27.88-24.39Q25.59-23.88 23.24-23.88Q18.75-23.88 15.09-25.46Q11.43-27.05 8.84-30.03Q6.25-33.01 4.86-37.23Q3.47-41.46 3.47-46.78Q3.47-52.25 5.10-56.54Q6.74-60.84 9.81-63.79Q12.89-66.75 17.36-68.29Q21.83-69.82 27.49-69.82Q33.45-69.82 38.01-67.80Q42.58-65.77 45.65-61.55Q48.73-57.32 50.32-50.85Q51.90-44.38 51.90-35.50M37.40-45.12Q37.40-48.05 36.74-50.61Q36.08-53.17 34.77-55.05Q33.45-56.93 31.54-58.01Q29.64-59.08 27.15-59.08Q24.85-59.08 23.05-58.23Q21.24-57.37 19.97-55.76Q18.70-54.15 18.04-51.86Q17.38-49.56 17.38-46.68Q17.38-43.99 18.02-41.67Q18.65-39.36 19.87-37.67Q21.09-35.99 22.95-35.03Q24.80-34.08 27.20-34.08Q29.10-34.08 30.93-34.77Q32.76-35.45 34.20-36.82Q35.64-38.18 36.52-40.26Q37.40-42.33 37.40-45.12"/>
  <path transform="translate(338.3 292.1) scale(1.05)" fill="#2a2350" stroke="#2a2350" stroke-width="5" stroke-linejoin="round" d="M52.83 0L6.30 0L6.30-10.21L23.34-10.21L23.34-57.13L6.84-46.83L6.84-57.62L24.07-68.80L37.06-68.80L37.06-10.21L52.83-10.21"/>
  <path transform="translate(113.6 405.4) scale(1.05)" fill="#2a2350" stroke="#2a2350" stroke-width="5" stroke-linejoin="round" d="M51.22-68.80L51.22-57.91Q46.58-50.59 42.46-43.70Q38.33-36.82 35.25-29.86Q32.18-22.90 30.40-15.55Q28.61-8.20 28.61 0L14.31 0Q14.31-8.15 16.24-15.50Q18.16-22.85 21.48-29.83Q24.80-36.82 29.20-43.63Q33.59-50.44 38.48-57.52L4.30-57.52L4.30-68.80"/>
  <path transform="translate(340.1 405.4) scale(1.05)" fill="#2a2350" stroke="#2a2350" stroke-width="5" stroke-linejoin="round" d="M52.54-19.38Q52.54-14.94 51.07-11.21Q49.61-7.47 46.58-4.76Q43.55-2.05 38.92-0.54Q34.28 0.98 27.88 0.98Q21.53 0.98 16.87-0.54Q12.21-2.05 9.16-4.76Q6.10-7.47 4.64-11.18Q3.17-14.89 3.17-19.29Q3.17-23.05 4.35-25.95Q5.52-28.86 7.47-30.96Q9.42-33.06 11.96-34.30Q14.50-35.55 17.19-35.99L17.19-36.18Q14.31-36.82 12.01-38.28Q9.72-39.75 8.11-41.80Q6.49-43.85 5.64-46.36Q4.79-48.88 4.79-51.61Q4.79-55.71 6.27-59.08Q7.76-62.45 10.64-64.84Q13.53-67.24 17.80-68.53Q22.07-69.82 27.69-69.82Q33.69-69.82 38.06-68.48Q42.43-67.14 45.26-64.72Q48.10-62.30 49.46-58.94Q50.83-55.57 50.83-51.51Q50.83-48.83 49.98-46.31Q49.12-43.80 47.51-41.75Q45.90-39.70 43.58-38.28Q41.26-36.87 38.33-36.28L38.33-36.08Q41.36-35.60 43.97-34.30Q46.58-33.01 48.49-30.93Q50.39-28.86 51.46-25.95Q52.54-23.05 52.54-19.38M36.72-50.78Q36.72-52.83 36.28-54.57Q35.84-56.30 34.81-57.54Q33.79-58.79 32.06-59.50Q30.32-60.21 27.69-60.21Q25.15-60.21 23.44-59.50Q21.73-58.79 20.70-57.54Q19.68-56.30 19.24-54.57Q18.80-52.83 18.80-50.78Q18.80-48.97 19.17-47.22Q19.53-45.46 20.51-44.07Q21.48-42.68 23.24-41.80Q25-40.92 27.78-40.92Q30.71-40.92 32.50-41.80Q34.28-42.68 35.21-44.09Q36.13-45.51 36.43-47.27Q36.72-49.02 36.72-50.78M38.33-20.51Q38.33-22.61 37.87-24.56Q37.40-26.51 36.21-28Q35.01-29.49 32.91-30.40Q30.81-31.30 27.59-31.30Q24.66-31.30 22.68-30.40Q20.70-29.49 19.51-27.98Q18.31-26.46 17.80-24.49Q17.29-22.51 17.29-20.31Q17.29-17.72 17.80-15.58Q18.31-13.43 19.56-11.89Q20.80-10.35 22.85-9.52Q24.90-8.69 27.98-8.69Q31.05-8.69 33.06-9.55Q35.06-10.40 36.23-11.96Q37.40-13.53 37.87-15.70Q38.33-17.87 38.33-20.51"/>
</svg>
