<svg xmlns="http://www.w3.org/2000/svg" viewBox="0 0 512 512">
  <rect width="512" height="512" rx="112" fill="#1a1426"/>
  <rect x="64" y="64" width="384" height="384" rx="60" fill="#efe2c2"/>
  <g fill="#fffaf0" stroke="#5b4a2e" stroke-width="7">
    <circle cx="256" cy="120" r="26"/><circle cx="256" cy="188" r="26"/><circle cx="256" cy="324" r="26"/><circle cx="256" cy="392" r="26"/>
    <circle cx="120" cy="256" r="26"/><circle cx="188" cy="256" r="26"/><circle cx="324" cy="256" r="26"/><circle cx="392" cy="256" r="26"/>
  </g>
  <circle cx="128" cy="128" r="34" fill="#e0393e"/><circle cx="384" cy="128" r="34" fill="#2d6fd6"/>
  <circle cx="384" cy="384" r="34" fill="#2fa35b"/><circle cx="128" cy="384" r="34" fill="#f2c230"/>
  <g transform="translate(256 262)">
    <path d="M-44 44 C-44 0 -24 -14 -18 -26 A30 30 0 1 1 18 -26 C24 -14 44 0 44 44 Z" fill="#e0393e"/>
    <path d="M-44 44 H44 V52 A10 10 0 0 1 34 62 H-34 A10 10 0 0 1 -44 52 Z" fill="#9c1f23"/>
    <circle cx="-10" cy="-52" r="9" fill="#fff" opacity=".6"/>
  </g>
</svg>
